<mxfile host="Electron" agent="Mozilla/5.0 (Macintosh; Intel Mac OS X 10_15_7) AppleWebKit/537.36 (KHTML, like Gecko) draw.io/26.1.1 Chrome/132.0.6834.210 Electron/34.3.3 Safari/537.36" version="26.1.1">
  <diagram name="Page-1" id="tTU6VO-JWaIcxqQY-o3U">
    <mxGraphModel dx="1114" dy="878" grid="1" gridSize="10" guides="1" tooltips="1" connect="1" arrows="1" fold="1" page="1" pageScale="1" pageWidth="827" pageHeight="1169" math="0" shadow="0">
      <root>
        <mxCell id="0" />
        <mxCell id="1" parent="0" />
        <mxCell id="o6YKCuhfYhcxcxZICQQV-1" value="" style="rounded=1;whiteSpace=wrap;html=1;verticalAlign=top;fontStyle=1" vertex="1" parent="1">
          <mxGeometry x="50" y="170" width="380" height="190" as="geometry" />
        </mxCell>
        <mxCell id="o6YKCuhfYhcxcxZICQQV-2" value="백엔드" style="rounded=0;whiteSpace=wrap;html=1;" vertex="1" parent="1">
          <mxGeometry x="80" y="240" width="60" height="30" as="geometry" />
        </mxCell>
        <mxCell id="o6YKCuhfYhcxcxZICQQV-3" style="edgeStyle=orthogonalEdgeStyle;rounded=0;orthogonalLoop=1;jettySize=auto;html=1;endArrow=block;endFill=1;" edge="1" parent="1" source="o6YKCuhfYhcxcxZICQQV-5" target="o6YKCuhfYhcxcxZICQQV-7">
          <mxGeometry relative="1" as="geometry" />
        </mxCell>
        <mxCell id="o6YKCuhfYhcxcxZICQQV-4" value="ETL" style="edgeLabel;html=1;align=center;verticalAlign=middle;resizable=0;points=[];fontSize=13;" vertex="1" connectable="0" parent="o6YKCuhfYhcxcxZICQQV-3">
          <mxGeometry x="-0.2258" y="-4" relative="1" as="geometry">
            <mxPoint x="4" y="-5" as="offset" />
          </mxGeometry>
        </mxCell>
        <mxCell id="o6YKCuhfYhcxcxZICQQV-5" value="" style="shape=cylinder3;whiteSpace=wrap;html=1;boundedLbl=1;backgroundOutline=1;size=15;fillColor=#fff2cc;strokeColor=#d6b656;" vertex="1" parent="1">
          <mxGeometry x="196.5" y="230" width="60" height="50" as="geometry" />
        </mxCell>
        <mxCell id="o6YKCuhfYhcxcxZICQQV-6" value="실시간&lt;div&gt;처리 데이터&lt;/div&gt;" style="text;html=1;align=center;verticalAlign=middle;whiteSpace=wrap;rounded=0;" vertex="1" parent="1">
          <mxGeometry x="189" y="280" width="75" height="29" as="geometry" />
        </mxCell>
        <mxCell id="o6YKCuhfYhcxcxZICQQV-7" value="마케팅&amp;nbsp;&lt;div&gt;분석 모델&lt;/div&gt;" style="sketch=0;outlineConnect=0;fontColor=#232F3E;gradientColor=none;fillColor=#8C4FFF;strokeColor=none;dashed=0;verticalLabelPosition=bottom;verticalAlign=top;align=center;html=1;fontSize=12;fontStyle=0;aspect=fixed;pointerEvents=1;shape=mxgraph.aws4.mesh;" vertex="1" parent="1">
          <mxGeometry x="329.48" y="235" width="40.52" height="40" as="geometry" />
        </mxCell>
        <mxCell id="o6YKCuhfYhcxcxZICQQV-8" value="제품 팀" style="verticalLabelPosition=bottom;sketch=0;html=1;fillColor=#282828;strokeColor=none;verticalAlign=top;pointerEvents=1;align=center;shape=mxgraph.cisco_safe.people_places_things_icons.icon1;" vertex="1" parent="1">
          <mxGeometry x="92.5" y="300" width="35" height="30" as="geometry" />
        </mxCell>
        <mxCell id="o6YKCuhfYhcxcxZICQQV-9" style="edgeStyle=orthogonalEdgeStyle;rounded=0;orthogonalLoop=1;jettySize=auto;html=1;entryX=0;entryY=0.5;entryDx=0;entryDy=0;entryPerimeter=0;endArrow=block;endFill=1;" edge="1" parent="1" source="o6YKCuhfYhcxcxZICQQV-2" target="o6YKCuhfYhcxcxZICQQV-5">
          <mxGeometry relative="1" as="geometry" />
        </mxCell>
        <mxCell id="o6YKCuhfYhcxcxZICQQV-10" value="" style="verticalLabelPosition=bottom;html=1;verticalAlign=top;align=center;strokeColor=none;fillColor=#00BEF2;shape=mxgraph.azure.service_endpoint;rotation=-180;" vertex="1" parent="1">
          <mxGeometry x="414" y="209" width="40" height="20" as="geometry" />
        </mxCell>
        <mxCell id="o6YKCuhfYhcxcxZICQQV-11" value="엔드 포인트" style="text;html=1;align=center;verticalAlign=middle;whiteSpace=wrap;rounded=0;" vertex="1" parent="1">
          <mxGeometry x="404" y="229" width="60" height="30" as="geometry" />
        </mxCell>
        <mxCell id="o6YKCuhfYhcxcxZICQQV-12" value="" style="verticalLabelPosition=bottom;html=1;verticalAlign=top;align=center;strokeColor=none;fillColor=#00BEF2;shape=mxgraph.azure.service_endpoint;rotation=-180;" vertex="1" parent="1">
          <mxGeometry x="414" y="279" width="40" height="20" as="geometry" />
        </mxCell>
        <mxCell id="o6YKCuhfYhcxcxZICQQV-13" value="엔드 포인트" style="text;html=1;align=center;verticalAlign=middle;whiteSpace=wrap;rounded=0;" vertex="1" parent="1">
          <mxGeometry x="404" y="299" width="60" height="30" as="geometry" />
        </mxCell>
        <mxCell id="o6YKCuhfYhcxcxZICQQV-14" style="edgeStyle=orthogonalEdgeStyle;rounded=0;orthogonalLoop=1;jettySize=auto;html=1;entryX=1;entryY=0.5;entryDx=0;entryDy=0;entryPerimeter=0;endArrow=block;endFill=1;" edge="1" parent="1" source="o6YKCuhfYhcxcxZICQQV-7" target="o6YKCuhfYhcxcxZICQQV-10">
          <mxGeometry relative="1" as="geometry" />
        </mxCell>
        <mxCell id="o6YKCuhfYhcxcxZICQQV-15" style="edgeStyle=orthogonalEdgeStyle;rounded=0;orthogonalLoop=1;jettySize=auto;html=1;entryX=1;entryY=0.5;entryDx=0;entryDy=0;entryPerimeter=0;endArrow=block;endFill=1;" edge="1" parent="1" source="o6YKCuhfYhcxcxZICQQV-7" target="o6YKCuhfYhcxcxZICQQV-12">
          <mxGeometry relative="1" as="geometry" />
        </mxCell>
        <mxCell id="o6YKCuhfYhcxcxZICQQV-16" value="" style="rounded=1;whiteSpace=wrap;html=1;verticalAlign=top;fontStyle=1" vertex="1" parent="1">
          <mxGeometry x="50" y="400" width="380" height="190" as="geometry" />
        </mxCell>
        <mxCell id="o6YKCuhfYhcxcxZICQQV-17" value="백엔드" style="rounded=0;whiteSpace=wrap;html=1;" vertex="1" parent="1">
          <mxGeometry x="80" y="470" width="60" height="30" as="geometry" />
        </mxCell>
        <mxCell id="o6YKCuhfYhcxcxZICQQV-18" style="edgeStyle=orthogonalEdgeStyle;rounded=0;orthogonalLoop=1;jettySize=auto;html=1;endArrow=block;endFill=1;" edge="1" parent="1" source="o6YKCuhfYhcxcxZICQQV-20" target="o6YKCuhfYhcxcxZICQQV-22">
          <mxGeometry relative="1" as="geometry" />
        </mxCell>
        <mxCell id="o6YKCuhfYhcxcxZICQQV-19" value="ETL" style="edgeLabel;html=1;align=center;verticalAlign=middle;resizable=0;points=[];fontSize=13;" vertex="1" connectable="0" parent="o6YKCuhfYhcxcxZICQQV-18">
          <mxGeometry x="-0.2258" y="-4" relative="1" as="geometry">
            <mxPoint x="4" y="-5" as="offset" />
          </mxGeometry>
        </mxCell>
        <mxCell id="o6YKCuhfYhcxcxZICQQV-20" value="" style="shape=cylinder3;whiteSpace=wrap;html=1;boundedLbl=1;backgroundOutline=1;size=15;fillColor=#fff2cc;strokeColor=#d6b656;" vertex="1" parent="1">
          <mxGeometry x="196.5" y="460" width="60" height="50" as="geometry" />
        </mxCell>
        <mxCell id="o6YKCuhfYhcxcxZICQQV-21" value="실시간&lt;div&gt;처리 데이터&lt;/div&gt;" style="text;html=1;align=center;verticalAlign=middle;whiteSpace=wrap;rounded=0;" vertex="1" parent="1">
          <mxGeometry x="189" y="510" width="75" height="29" as="geometry" />
        </mxCell>
        <mxCell id="o6YKCuhfYhcxcxZICQQV-22" value="마케팅&amp;nbsp;&lt;div&gt;분석 모델&lt;/div&gt;" style="sketch=0;outlineConnect=0;fontColor=#232F3E;gradientColor=none;fillColor=#8C4FFF;strokeColor=none;dashed=0;verticalLabelPosition=bottom;verticalAlign=top;align=center;html=1;fontSize=12;fontStyle=0;aspect=fixed;pointerEvents=1;shape=mxgraph.aws4.mesh;" vertex="1" parent="1">
          <mxGeometry x="329.48" y="465" width="40.52" height="40" as="geometry" />
        </mxCell>
        <mxCell id="o6YKCuhfYhcxcxZICQQV-23" value="제품 팀" style="verticalLabelPosition=bottom;sketch=0;html=1;fillColor=#282828;strokeColor=none;verticalAlign=top;pointerEvents=1;align=center;shape=mxgraph.cisco_safe.people_places_things_icons.icon1;" vertex="1" parent="1">
          <mxGeometry x="92.5" y="530" width="35" height="30" as="geometry" />
        </mxCell>
        <mxCell id="o6YKCuhfYhcxcxZICQQV-24" style="edgeStyle=orthogonalEdgeStyle;rounded=0;orthogonalLoop=1;jettySize=auto;html=1;entryX=0;entryY=0.5;entryDx=0;entryDy=0;entryPerimeter=0;endArrow=block;endFill=1;" edge="1" parent="1" source="o6YKCuhfYhcxcxZICQQV-17" target="o6YKCuhfYhcxcxZICQQV-20">
          <mxGeometry relative="1" as="geometry" />
        </mxCell>
        <mxCell id="o6YKCuhfYhcxcxZICQQV-25" value="" style="verticalLabelPosition=bottom;html=1;verticalAlign=top;align=center;strokeColor=none;fillColor=#00BEF2;shape=mxgraph.azure.service_endpoint;rotation=-180;" vertex="1" parent="1">
          <mxGeometry x="414" y="439" width="40" height="20" as="geometry" />
        </mxCell>
        <mxCell id="o6YKCuhfYhcxcxZICQQV-26" value="엔드 포인트" style="text;html=1;align=center;verticalAlign=middle;whiteSpace=wrap;rounded=0;" vertex="1" parent="1">
          <mxGeometry x="404" y="459" width="60" height="30" as="geometry" />
        </mxCell>
        <mxCell id="o6YKCuhfYhcxcxZICQQV-27" value="" style="verticalLabelPosition=bottom;html=1;verticalAlign=top;align=center;strokeColor=none;fillColor=#00BEF2;shape=mxgraph.azure.service_endpoint;rotation=-180;" vertex="1" parent="1">
          <mxGeometry x="414" y="509" width="40" height="20" as="geometry" />
        </mxCell>
        <mxCell id="o6YKCuhfYhcxcxZICQQV-28" value="엔드 포인트" style="text;html=1;align=center;verticalAlign=middle;whiteSpace=wrap;rounded=0;" vertex="1" parent="1">
          <mxGeometry x="404" y="529" width="60" height="30" as="geometry" />
        </mxCell>
        <mxCell id="o6YKCuhfYhcxcxZICQQV-29" style="edgeStyle=orthogonalEdgeStyle;rounded=0;orthogonalLoop=1;jettySize=auto;html=1;entryX=1;entryY=0.5;entryDx=0;entryDy=0;entryPerimeter=0;endArrow=block;endFill=1;" edge="1" parent="1" source="o6YKCuhfYhcxcxZICQQV-22" target="o6YKCuhfYhcxcxZICQQV-25">
          <mxGeometry relative="1" as="geometry" />
        </mxCell>
        <mxCell id="o6YKCuhfYhcxcxZICQQV-30" style="edgeStyle=orthogonalEdgeStyle;rounded=0;orthogonalLoop=1;jettySize=auto;html=1;entryX=1;entryY=0.5;entryDx=0;entryDy=0;entryPerimeter=0;endArrow=block;endFill=1;" edge="1" parent="1" source="o6YKCuhfYhcxcxZICQQV-22" target="o6YKCuhfYhcxcxZICQQV-27">
          <mxGeometry relative="1" as="geometry" />
        </mxCell>
        <mxCell id="o6YKCuhfYhcxcxZICQQV-31" value="도메인 데이터&lt;div&gt;프로덕트 오너&lt;/div&gt;&lt;div&gt;플랫폼 엔지니어&lt;/div&gt;" style="verticalLabelPosition=bottom;sketch=0;html=1;fillColor=#282828;strokeColor=none;verticalAlign=top;pointerEvents=1;align=center;shape=mxgraph.cisco_safe.people_places_things_icons.icon1;" vertex="1" parent="1">
          <mxGeometry x="600" y="350" width="35" height="40" as="geometry" />
        </mxCell>
        <mxCell id="o6YKCuhfYhcxcxZICQQV-36" style="edgeStyle=entityRelationEdgeStyle;rounded=0;orthogonalLoop=1;jettySize=auto;html=1;entryX=0;entryY=0.49;entryDx=0;entryDy=0;entryPerimeter=0;endArrow=block;endFill=1;strokeWidth=2;fillColor=#f8cecc;strokeColor=#b85450;" edge="1" parent="1" source="o6YKCuhfYhcxcxZICQQV-10" target="o6YKCuhfYhcxcxZICQQV-31">
          <mxGeometry relative="1" as="geometry" />
        </mxCell>
        <mxCell id="o6YKCuhfYhcxcxZICQQV-37" style="edgeStyle=entityRelationEdgeStyle;rounded=0;orthogonalLoop=1;jettySize=auto;html=1;entryX=-0.057;entryY=0.49;entryDx=0;entryDy=0;entryPerimeter=0;endArrow=block;endFill=1;strokeWidth=2;fillColor=#f8cecc;strokeColor=#b85450;" edge="1" parent="1" source="o6YKCuhfYhcxcxZICQQV-12" target="o6YKCuhfYhcxcxZICQQV-31">
          <mxGeometry relative="1" as="geometry" />
        </mxCell>
        <mxCell id="o6YKCuhfYhcxcxZICQQV-38" style="edgeStyle=entityRelationEdgeStyle;rounded=0;orthogonalLoop=1;jettySize=auto;html=1;entryX=-0.029;entryY=0.49;entryDx=0;entryDy=0;entryPerimeter=0;endArrow=block;endFill=1;strokeWidth=2;fillColor=#f8cecc;strokeColor=#b85450;" edge="1" parent="1" source="o6YKCuhfYhcxcxZICQQV-25" target="o6YKCuhfYhcxcxZICQQV-31">
          <mxGeometry relative="1" as="geometry" />
        </mxCell>
        <mxCell id="o6YKCuhfYhcxcxZICQQV-39" style="edgeStyle=entityRelationEdgeStyle;rounded=0;orthogonalLoop=1;jettySize=auto;html=1;entryX=0.029;entryY=0.49;entryDx=0;entryDy=0;entryPerimeter=0;endArrow=block;endFill=1;strokeWidth=2;fillColor=#f8cecc;strokeColor=#b85450;" edge="1" parent="1" source="o6YKCuhfYhcxcxZICQQV-27" target="o6YKCuhfYhcxcxZICQQV-31">
          <mxGeometry relative="1" as="geometry" />
        </mxCell>
      </root>
    </mxGraphModel>
  </diagram>
</mxfile>
